<?xml version="1.0" encoding="UTF-8" standalone="no"?>
<!DOCTYPE svg PUBLIC "-//W3C//DTD SVG 1.1//EN"
 "http://www.w3.org/Graphics/SVG/1.1/DTD/svg11.dtd">
<!-- Generated by graphviz version 2.42.4 (0)
 -->
<!-- Title: PersistentUSB Pages: 1 -->
<svg width="556pt" height="293pt"
 viewBox="0.00 0.00 556.00 292.74" xmlns="http://www.w3.org/2000/svg" xmlns:xlink="http://www.w3.org/1999/xlink">
<g id="graph0" class="graph" transform="scale(1 1) rotate(0) translate(4 288.74)">
<title>PersistentUSB</title>
<polygon fill="white" stroke="transparent" points="-4,4 -4,-288.74 552,-288.74 552,4 -4,4"/>
<g id="clust1" class="cluster">
<title>cluster_usb</title>
<polygon fill="none" stroke="dimgrey" stroke-dasharray="5,2" points="8,-199.74 8,-276.74 376,-276.74 376,-199.74 8,-199.74"/>
<text text-anchor="middle" x="192" y="-261.54" font-family="Times,serif" font-size="14.00">USB Flash Drive (實體隨身碟)</text>
</g>
<!-- RO_Part -->
<g id="node1" class="node">
<title>RO_Part</title>
<path fill="none" stroke="black" d="M180.5,-245.74C180.5,-245.74 27.5,-245.74 27.5,-245.74 21.5,-245.74 15.5,-239.74 15.5,-233.74 15.5,-233.74 15.5,-219.74 15.5,-219.74 15.5,-213.74 21.5,-207.74 27.5,-207.74 27.5,-207.74 180.5,-207.74 180.5,-207.74 186.5,-207.74 192.5,-213.74 192.5,-219.74 192.5,-219.74 192.5,-233.74 192.5,-233.74 192.5,-239.74 186.5,-245.74 180.5,-245.74"/>
<text text-anchor="middle" x="104" y="-230.54" font-family="sans-serif" font-size="14.00">Read&#45;Only Partition</text>
<text text-anchor="middle" x="104" y="-215.54" font-family="sans-serif" font-size="14.00">(Live OS ISO / SquashFS)</text>
</g>
<!-- Overlay -->
<g id="node3" class="node">
<title>Overlay</title>
<ellipse fill="lightgrey" stroke="black" cx="175" cy="-122.87" rx="78.48" ry="26.74"/>
<text text-anchor="middle" x="175" y="-126.67" font-family="sans-serif" font-size="14.00">OverlayFS</text>
<text text-anchor="middle" x="175" y="-111.67" font-family="sans-serif" font-size="14.00">(疊加檔案系統)</text>
</g>
<!-- RO_Part&#45;&gt;Overlay -->
<g id="edge1" class="edge">
<title>RO_Part&#45;&gt;Overlay</title>
<path fill="none" stroke="black" d="M109.71,-207.52C113.96,-195.58 120.48,-179.98 129,-167.74 131.92,-163.55 135.29,-159.43 138.85,-155.51"/>
<polygon fill="black" stroke="black" points="141.45,-157.86 145.86,-148.23 136.4,-153 141.45,-157.86"/>
<text text-anchor="middle" x="155" y="-181.74" font-family="sans-serif" font-size="10.00"> lowerdir</text>
<text text-anchor="middle" x="155" y="-170.74" font-family="sans-serif" font-size="10.00">(底層/唯讀)</text>
</g>
<!-- RW_Part -->
<g id="node2" class="node">
<title>RW_Part</title>
<path fill="none" stroke="black" d="M356,-245.74C356,-245.74 222,-245.74 222,-245.74 216,-245.74 210,-239.74 210,-233.74 210,-233.74 210,-219.74 210,-219.74 210,-213.74 216,-207.74 222,-207.74 222,-207.74 356,-207.74 356,-207.74 362,-207.74 368,-213.74 368,-219.74 368,-219.74 368,-233.74 368,-233.74 368,-239.74 362,-245.74 356,-245.74"/>
<text text-anchor="middle" x="289" y="-230.54" font-family="sans-serif" font-size="14.00">Read&#45;Write Partition</text>
<text text-anchor="middle" x="289" y="-215.54" font-family="sans-serif" font-size="14.00">(casper&#45;rw / writable)</text>
</g>
<!-- RW_Part&#45;&gt;Overlay -->
<g id="edge2" class="edge">
<title>RW_Part&#45;&gt;Overlay</title>
<path fill="none" stroke="black" d="M238.51,-207.68C229.02,-202.81 219.68,-196.87 212,-189.74 202.76,-181.17 195.25,-169.75 189.46,-158.83"/>
<polygon fill="black" stroke="black" points="192.59,-157.25 185.01,-149.85 186.31,-160.36 192.59,-157.25"/>
<text text-anchor="middle" x="243.5" y="-181.74" font-family="sans-serif" font-size="10.00"> upperdir</text>
<text text-anchor="middle" x="243.5" y="-170.74" font-family="sans-serif" font-size="10.00">(頂層/可讀寫)</text>
</g>
<!-- MergedView -->
<g id="node4" class="node">
<title>MergedView</title>
<path fill="lightblue" stroke="black" d="M375.5,-38C375.5,-38 202.5,-38 202.5,-38 196.5,-38 190.5,-32 190.5,-26 190.5,-26 190.5,-12 190.5,-12 190.5,-6 196.5,0 202.5,0 202.5,0 375.5,0 375.5,0 381.5,0 387.5,-6 387.5,-12 387.5,-12 387.5,-26 387.5,-26 387.5,-32 381.5,-38 375.5,-38"/>
<text text-anchor="middle" x="289" y="-22.8" font-family="sans-serif" font-size="14.00">Merged File System</text>
<text text-anchor="middle" x="289" y="-7.8" font-family="sans-serif" font-size="14.00">(使用者見到的完整讀寫環境)</text>
</g>
<!-- Overlay&#45;&gt;MergedView -->
<g id="edge3" class="edge">
<title>Overlay&#45;&gt;MergedView</title>
<path fill="none" stroke="black" d="M191.12,-96.46C200.28,-83.33 212.57,-67.67 226,-56 231.17,-51.5 237,-47.29 242.96,-43.45"/>
<polygon fill="black" stroke="black" points="245.02,-46.29 251.73,-38.08 241.37,-40.31 245.02,-46.29"/>
<text text-anchor="middle" x="250.5" y="-70" font-family="sans-serif" font-size="10.00"> merged</text>
<text text-anchor="middle" x="250.5" y="-59" font-family="sans-serif" font-size="10.00">(合併呈現)</text>
</g>
<!-- MergedView&#45;&gt;RW_Part -->
<g id="edge5" class="edge">
<title>MergedView&#45;&gt;RW_Part</title>
<path fill="none" stroke="blue" stroke-dasharray="1,5" d="M289,-38.22C289,-74.18 289,-154.51 289,-197.43"/>
<polygon fill="blue" stroke="blue" points="285.5,-197.48 289,-207.48 292.5,-197.48 285.5,-197.48"/>
<text text-anchor="middle" x="332.5" y="-120.37" font-family="sans-serif" font-size="10.00"> 寫入變更僅存於此</text>
</g>
<!-- UserAction -->
<g id="node5" class="node">
<title>UserAction</title>
<polygon fill="none" stroke="black" points="542,-141.87 394,-141.87 394,-103.87 548,-103.87 548,-135.87 542,-141.87"/>
<polyline fill="none" stroke="black" points="542,-141.87 542,-135.87 "/>
<polyline fill="none" stroke="black" points="548,-135.87 542,-135.87 "/>
<text text-anchor="middle" x="471" y="-126.67" font-family="sans-serif" font-size="14.00">User Operations</text>
<text text-anchor="middle" x="471" y="-111.67" font-family="sans-serif" font-size="14.00">(安裝軟體、儲存檔案)</text>
</g>
<!-- UserAction&#45;&gt;MergedView -->
<g id="edge4" class="edge">
<title>UserAction&#45;&gt;MergedView</title>
<path fill="none" stroke="black" d="M438.46,-103.66C408.18,-86.71 362.92,-61.38 330.15,-43.03"/>
<polygon fill="black" stroke="black" points="331.69,-39.88 321.26,-38.05 328.27,-45.99 331.69,-39.88"/>
<text text-anchor="middle" x="414.5" y="-64.5" font-family="sans-serif" font-size="10.00"> 讀/寫請求</text>
</g>
</g>
</svg>
